# xmcd
#
# Track frame offsets: 
#        183
#        22483
#        36030
#        49123
#        65568
#        79018
#        90890
#        103415
#        113358
#        125980
#        136350
#        150003
#        170228
#        173930
#        183245
#        206058
#        216130
#        231485
#
# Disc length: 3303 seconds
#
# Revision: 5
# Processed by: cddbd v1.5.2PL0 Copyright (c) Steve Scherf et al.
# Submitted via: ExactAudioCopy v0.90b4
#
DISCID=000ce512
DTITLE=James Brown - Messing With The Blues
DYEAR=1990
DGENRE=Rhythm and Blues
TTITLE0=Like It Is, Like It Was (The Blues)
TTITLE1=Don't Cry Baby
TTITLE2=Caldonia
TTITLE3=Somebody Done Changed The Lock On My Door
TTITLE4=Ain't Nobody Here But Us Chickens
TTITLE5=Good Rockin' Tonight
TTITLE6=I Love You, Yes I Do
TTITLE7=Messing With The Blues
TTITLE8=Waiting In Vain
TTITLE9=For You, My Love
TTITLE10=Blues For My Baby
TTITLE11=Everyday I Have The Blues
TTITLE12=Love Don't Love Nobody (false start)
TTITLE13=Love Don't Love Nobody
TTITLE14=Goin' Home
TTITLE15=Have Mercy Baby
TTITLE16=Kansas City
TTITLE17=The Bells
EXTD=
EXTT0=
EXTT1=
EXTT2=
EXTT3=
EXTT4=
EXTT5=
EXTT6=
EXTT7=
EXTT8=
EXTT9=
EXTT10=
EXTT11=
EXTT12=
EXTT13=
EXTT14=
EXTT15=
EXTT16=
EXTT17=
PLAYORDER=
